<svg class="cover__image" xmlns="http://www.w3.org/2000/svg" viewBox="0 0 1920 820" fill="none"><path fill-rule="evenodd" clip-rule="evenodd" d="M-199.349 799.756c-28.048-254.64 124.571-541.148 382.813-667.479C435.03 9.212 747.538 230.389 1036.03 195.415c232.14-28.144 396.59-301.633 621.96-241.9 222.42 58.951 288.46 308.549 350.71 499.7 48.72 149.595-91.03 301.267-41.22 450.615 92.84 278.39 564.74 491.59 444.79 759.52-105.09 234.74-557.14 100.28-848.62 142.46-256.93 37.19-511.44 171.94-755.734 89.72-243.844-82.07-324.142-331.46-486.16-507.71-182.222-198.24-493.662-338.91-521.105-588.064Z" fill="#0C0D0E"/></svg>