<svg xmlns="http://www.w3.org/2000/svg" xml:space="preserve" style="enable-background:new 0 0 684.1 250.8" viewBox="0 0 684.1 250.8"><path d="M629 85c0-3 0-6-2-6-3 0-6 5-6 6v30h-20V85c0-4 0-6-2-6-4 0-7 5-7 6v30h-19V85c0-5 0-12-5-15 2-2 7-4 12-4 6 0 10 3 12 9 4-6 8-10 15-10s11 5 13 11c4-7 9-11 15-11 11 0 14 9 14 22v11c0 5 0 10 5 13-4 5-8 6-12 6s-13-2-13-12V85zm-392-8v-9h5c0-5 1-16 20-16v16h12c16 0 23 1 23 15v32h-20V89c0-10-3-12-11-12h-4v22c0 7 3 12 11 12-4 4-10 6-14 6-8 0-17-4-17-20V77h-5zM82 94c-2 15-15 23-27 23-19 0-34-14-34-36 0-21 14-36 36-36 10 0 23 5 23 17 0 7-5 12-11 12-13 0-8-15-15-15-4 0-11 5-11 22 0 15 8 22 18 22 8 1 14-3 21-9zm132-26h19v30c0 5 0 10 5 13-3 5-8 6-12 6s-10-1-12-8c-5 7-11 8-15 8-12 0-18-11-18-26 0-14 6-25 18-25 6 0 10 2 15 7v-5zm0 14c-1-2-5-4-7-4-6 0-7 8-7 14s1 13 7 13c3 0 5-2 6-4l1-19zm106-14v29c0 4 1 9 4 9 7 0 9-12 9-18 0-7-2-15-8-17 0-3 4-8 11-8 10 0 15 10 15 20 0 21-12 34-27 34-13 0-23-6-23-20V68h19zM147 99c1 4 6 8 14 8 6 0 11-2 15-4-4 9-12 14-21 14-17 0-27-10-27-26 0-14 10-25 27-25 13 0 22 7 22 17 0 7-5 16-20 16h-10zm5-8c5 0 8-4 8-8s-3-6-6-6-7 3-7 14h5zm-47-16c4-7 9-9 13-9 5 0 10 4 10 10s-5 11-10 11c-6 0-8-5-9-8l-3 3v33H86V85c0-5 0-12-5-15 2-2 7-4 12-4 6 0 10 3 12 9zm169-21c0 5 5 9 11 9s12-4 12-9c0-4-6-8-12-8s-11 4-11 8zm174 23v22c0 7 3 12 11 12-4 4-10 6-14 6-8 0-17-4-17-20V77h-4v-9h4c0-5 2-16 20-16v16h10v9h-10zm-74 22c1 4 6 8 13 8 6 0 11-2 15-4-4 9-11 14-21 14-16 0-27-10-27-26 0-14 11-25 28-25 12 0 22 7 22 17 0 7-6 16-20 16h-10zm5-8c5 0 8-4 8-8s-3-6-6-6-8 3-8 14h6zm101 8c0 4 5 8 13 8 6 0 11-2 15-4-4 9-12 14-21 14-16 0-27-10-27-26 0-14 11-25 28-25 12 0 21 6 21 17 0 7-5 16-20 16h-9zm4-8c5 0 8-4 8-8s-2-6-5-6c-4 0-8 3-8 14h5zm61-23h19v30c0 5 0 10 5 13-3 5-8 6-12 6s-10-1-12-8c-5 7-10 8-15 8-12 0-18-12-18-26s6-25 18-25c6 0 10 1 15 7v-5zm0 14c-1-2-5-4-7-4-6 0-7 8-7 14s2 13 7 13c3 0 5-2 7-4V82z" style="fill:#fff"/></svg>