<svg class="bg__blobs" xmlns="http://www.w3.org/2000/svg" viewBox="0 100 1620 1620" fill="none"><g fill-rule="evenodd" clip-rule="evenodd" filter="url(#a)"><path class="blobs__blob blobs__blob1" d="M1310.5 456.8c75.5 74.2 32.8 204.1-8 301.9-39.4 95-102.5 199.5-204.8 209.6-94.4 9.4-146.5-99.5-212-168.2-41.5-43.5-71-89.3-88.6-146.8-28.4-92.4-116.6-213.4-40.2-272.6 78-60.4 165.1 86.7 262.8 100 101.4 14 217.8-95.6 290.8-24Z"/><path class="blobs__blob blobs__blob2" d="M739.9 579.7c2 58.4-20.1 120.7-68 154.3-43.7 30.7-101-.6-154.4 1.9-58.7 2.6-116.4 38.8-169 12.7-69.1-34.4-139.6-92-145.2-169-5.8-79 69.3-133.4 118.6-195.4 60.3-76 99.7-214.6 195.6-200.1 99.4 15 95 163.9 144.3 251.4 27.8 49.6 76.1 87.4 78 144.2Z"/><path class="blobs__blob blobs__blob3" d="M783.7 378.5c100.6-9.6 154-169.4 254-154.5 86.6 12.8 105.5 134.8 144 213.6 39.5 80.9 124.8 171.4 83.1 251.2-46.5 89-200.6 41.9-272.7 111.6-61.3 59.2-15.9 187.4-86.3 235.4-67.8 46.2-167.5 24.6-240.5-12.6-69-35.2-114.5-107-138.8-180.6-20.1-61.1 27.5-125 17.2-188.5-10.5-65.5-79.3-113-76.6-179.3 3-76.4 19-182.7 92-205 81.2-24.7 140.1 116.8 224.6 108.7Z"/></g><defs><filter id="a" x="0" y="0" color-interpolation-filters="sRGB" filterUnits="userSpaceOnUse"><feFlood flood-opacity="0" result="BackgroundImageFix"/><feBlend in="SourceGraphic" in2="BackgroundImageFix" result="shape"/><feGaussianBlur result="effect1_foregroundBlur_2204_30" stdDeviation="90"/></filter></defs></svg>