<svg viewBox="0 0 512 512" fill="none" xmlns="http://www.w3.org/2000/svg"><path clip-rule="evenodd" d="M129.573 351.885a132.434 132.434 0 0 1-1.571-21.038L128.001 79 384 202.57v229.413L270.303 330.847c-7.453-6.581-14.136-12.297-20.052-17.15a73.573 73.573 0 0 0-17.646-11.001c-5.909-2.487-9.908-3.708-16.324-3.676a32.39 32.39 0 0 0-11.43 2.159 29.42 29.42 0 0 0-10.026 6.349 29.911 29.911 0 0 0-5.848 7.844 43.861 43.861 0 0 0-1.27 2.791 37.875 37.875 0 0 0-2.707 14.89 36.382 36.382 0 0 0 3.977 17.016 26.773 26.773 0 0 0 1.738 2.992 34.982 34.982 0 0 0 16.041 13.095c7.565 3.086 12.744 4.478 21.244 4.803 33.639 0 61.333 27.325 61.333 61.033H228c-17.432.21-34.409-3.658-50.069-11.276a86.982 86.982 0 0 1-36.327-34.166 96.005 96.005 0 0 1-12.031-34.665Zm202.289-106.62-147.047-73.783v68.066a71.021 71.021 0 0 1 24.397-4.42 73.6 73.6 0 0 1 38.031 10.137 126.241 126.241 0 0 1 31.481 26.422l53.138 58.993v-85.415Z"/></svg>